{
	"asset":{
		"generator":"Khronos glTF Blender I/O v4.1.62",
		"version":"2.0"
	},
	"scene":0,
	"scenes":[
		{
			"name":"Scene",
			"nodes":[
				4
			]
		}
	],
	"nodes":[
		{
			"mesh":0,
			"name":"defaultMaterial.001"
		},
		{
			"children":[
				0
			],
			"name":"polySurface395"
		},
		{
			"name":"textureEditorIsolateSelectSet"
		},
		{
			"children":[
				1,
				2
			],
			"name":"Collada visual scene group",
			"rotation":[
				0.70710688829422,
				0,
				0,
				0.7071066498756409
			]
		},
		{
			"children":[
				3
			],
			"name":"Sketchfab_model",
			"rotation":[
				-0.70710688829422,
				0,
				0,
				0.7071066498756409
			]
		}
	],
	"materials":[
		{
			"doubleSided":true,
			"name":"aiStandardSurface6SG",
			"normalTexture":{
				"index":0
			},
			"occlusionTexture":{
				"index":1
			},
			"pbrMetallicRoughness":{
				"baseColorTexture":{
					"index":2
				},
				"metallicRoughnessTexture":{
					"index":1
				}
			}
		}
	],
	"meshes":[
		{
			"name":"defaultMaterial.001",
			"primitives":[
				{
					"attributes":{
						"POSITION":0,
						"NORMAL":1,
						"TEXCOORD_0":2
					},
					"indices":3,
					"material":0
				}
			]
		}
	],
	"textures":[
		{
			"sampler":0,
			"source":0
		},
		{
			"sampler":0,
			"source":1
		},
		{
			"sampler":0,
			"source":2
		}
	],
	"images":[
		{
			"mimeType":"image/png",
			"name":"aiStandardSurface6SG_normal",
			"uri":"aiStandardSurface6SG_normal.png"
		},
		{
			"mimeType":"image/png",
			"name":"aiStandardSurface6SG_metallicRoughness",
			"uri":"aiStandardSurface6SG_metallicRoughness.png"
		},
		{
			"mimeType":"image/jpeg",
			"name":"aiStandardSurface6SG_baseColor",
			"uri":"aiStandardSurface6SG_baseColor.jpg"
		}
	],
	"accessors":[
		{
			"bufferView":0,
			"componentType":5126,
			"count":21100,
			"max":[
				1.7410577535629272,
				2.056565999984741,
				2.032228469848633
			],
			"min":[
				-1.7395641803741455,
				-1.3406472206115723,
				-2.4783215522766113
			],
			"type":"VEC3"
		},
		{
			"bufferView":1,
			"componentType":5126,
			"count":21100,
			"type":"VEC3"
		},
		{
			"bufferView":2,
			"componentType":5126,
			"count":21100,
			"type":"VEC2"
		},
		{
			"bufferView":3,
			"componentType":5123,
			"count":97920,
			"type":"SCALAR"
		}
	],
	"bufferViews":[
		{
			"buffer":0,
			"byteLength":253200,
			"byteOffset":0,
			"target":34962
		},
		{
			"buffer":0,
			"byteLength":253200,
			"byteOffset":253200,
			"target":34962
		},
		{
			"buffer":0,
			"byteLength":168800,
			"byteOffset":506400,
			"target":34962
		},
		{
			"buffer":0,
			"byteLength":195840,
			"byteOffset":675200,
			"target":34963
		}
	],
	"samplers":[
		{
			"magFilter":9729,
			"minFilter":9987
		}
	],
	"buffers":[
		{
			"byteLength":871040,
			"uri":"John_117.bin"
		}
	]
}
